<svg width="60" height="60" viewBox="0 0 60 60" fill="none" xmlns="http://www.w3.org/2000/svg">
<path fill-rule="evenodd" clip-rule="evenodd" d="M28.675 5.38001C29.0723 5.13167 29.5315 5 30 5C30.4686 5 30.9277 5.13167 31.325 5.38001L48.585 16.1675L30 27.1L11.415 16.1675L28.675 5.38001ZM7.52001 19.6775C7.5064 19.7845 7.49971 19.8922 7.50001 20V40C7.50001 40.424 7.60785 40.8411 7.8134 41.2119C8.01895 41.5828 8.31545 41.8953 8.67501 42.12L27.5 53.885V31.43L7.52001 19.6775ZM32.5 53.885L51.325 42.12C51.6846 41.8953 51.9811 41.5828 52.1866 41.2119C52.3922 40.8411 52.5 40.424 52.5 40V20C52.5 19.8917 52.4933 19.7842 52.48 19.6775L32.5 31.4275V53.885Z" fill="#D6F64B"/>
</svg>
