<svg width="60" height="60" viewBox="0 0 60 60" fill="none" xmlns="http://www.w3.org/2000/svg">
<path d="M23.9099 21.825L25.1974 26.4825C26.4099 30.87 27.0149 33.065 28.7974 34.0625C30.5799 35.0625 32.8424 34.4725 37.3674 33.2975L42.1674 32.0475C46.6924 30.8725 48.9549 30.285 49.9849 28.5575C51.0149 26.8275 50.4099 24.6325 49.1949 20.245L47.9099 15.59C46.6974 11.2 46.0899 9.00499 44.3099 8.00749C42.5249 7.00749 40.2624 7.59749 35.7374 8.77499L30.9374 10.02C26.4124 11.195 24.1499 11.785 23.1224 13.515C22.0924 15.2425 22.6974 17.4375 23.9099 21.825Z" fill="#D6F64B"/>
<path d="M5.69248 13.1174C5.75835 12.88 5.87037 12.6579 6.02214 12.4638C6.17391 12.2696 6.36246 12.1073 6.57699 11.9861C6.79153 11.8649 7.02785 11.7872 7.27245 11.7574C7.51704 11.7276 7.76512 11.7463 8.00248 11.8124L12.26 12.9924C13.388 13.2996 14.4174 13.8933 15.248 14.7161C16.0785 15.5388 16.6821 16.5624 17 17.6874L22.3775 37.1524L22.7725 38.5199C24.3669 39.1076 25.7104 40.2261 26.5775 41.6874L27.3525 41.4474L49.5275 35.6849C49.7658 35.6229 50.0141 35.6084 50.258 35.6423C50.502 35.6762 50.7369 35.7578 50.9493 35.8824C51.1617 36.0071 51.3475 36.1724 51.496 36.3688C51.6445 36.5653 51.7529 36.7891 51.815 37.0274C51.877 37.2658 51.8915 37.514 51.8576 37.758C51.8238 38.0019 51.7422 38.2368 51.6175 38.4492C51.4928 38.6616 51.3275 38.8474 51.1311 38.996C50.9346 39.1445 50.7108 39.2529 50.4725 39.3149L28.38 45.0549L27.555 45.3099C27.54 48.4849 25.3475 51.3899 22.03 52.2499C18.055 53.2849 13.9675 50.9949 12.9025 47.1399C11.8375 43.2849 14.1975 39.3174 18.1725 38.2849C18.3708 38.2349 18.5683 38.1916 18.765 38.1549L13.385 18.6849C13.2395 18.1851 12.9675 17.7312 12.5952 17.3673C12.2229 17.0033 11.763 16.7416 11.26 16.6074L6.99998 15.4249C6.76259 15.3593 6.54045 15.2476 6.34626 15.0961C6.15206 14.9446 5.98961 14.7563 5.8682 14.5421C5.74678 14.3278 5.66876 14.0917 5.63861 13.8472C5.60846 13.6028 5.62677 13.3548 5.69248 13.1174Z" fill="#D6F64B"/>
</svg>
