<svg width="60" height="60" viewBox="0 0 60 60" fill="none" xmlns="http://www.w3.org/2000/svg">
<path fill-rule="evenodd" clip-rule="evenodd" d="M27.5774 32.0026L14.1624 6.77006C14.0854 6.62511 14.0376 6.4664 14.0219 6.303C14.0061 6.13959 14.0227 5.97469 14.0707 5.8177C14.1677 5.50064 14.3866 5.23508 14.6793 5.07943C14.972 4.92378 15.3146 4.8908 15.6317 4.98773C15.7887 5.03573 15.9347 5.11417 16.0613 5.21859C16.188 5.32301 16.2929 5.45136 16.3699 5.59631L29.7862 30.8288L31.6887 29.8163C32.2685 29.508 32.9034 29.317 33.5571 29.2541C34.2108 29.1913 34.8705 29.2578 35.4985 29.4499C36.1264 29.642 36.7104 29.9559 37.2171 30.3738C37.7237 30.7916 38.143 31.3051 38.4512 31.8851L39.2612 33.4088L47.8487 45.9763L36.9262 51.7826L33.1424 44.3038L30.9124 45.4326L34.7187 52.9576L30.0362 55.4463L24.4174 41.2988L23.6087 39.7763C23.3004 39.1965 23.1093 38.5617 23.0463 37.9081C22.9834 37.2544 23.0498 36.5948 23.2418 35.9668C23.4337 35.3389 23.7476 34.7549 24.1653 34.2482C24.583 33.7415 25.0964 33.3221 25.6762 33.0138L27.5774 32.0026ZM32.8612 32.0251L26.8487 35.2213C26.5588 35.3754 26.3021 35.5852 26.0932 35.8385C25.8844 36.0918 25.7275 36.3838 25.6315 36.6978C25.5355 37.0118 25.5023 37.3416 25.5338 37.6684C25.5652 37.9953 25.6608 38.3127 25.8149 38.6026L26.6237 40.1251L37.0524 34.5801L36.2424 33.0588C36.0883 32.7689 35.8786 32.5122 35.6253 32.3033C35.3719 32.0945 35.0799 31.9376 34.7659 31.8416C34.4519 31.7456 34.1221 31.7124 33.7953 31.7439C33.4685 31.7754 33.1511 31.8709 32.8612 32.0251Z" fill="#D6F64B"/>
<path d="M22.21 44.2C21.9979 43.9453 21.6934 43.7852 21.3634 43.755C21.0333 43.7247 20.7048 43.8268 20.45 44.0387H20.4525L20.4387 44.0487L20.3612 44.1087C20.249 44.1928 20.1343 44.2736 20.0175 44.3512C19.7075 44.5575 19.245 44.8387 18.65 45.1212C17.1206 45.8563 15.4468 46.2419 13.75 46.25C13.4185 46.25 13.1005 46.3817 12.8661 46.6161C12.6317 46.8505 12.5 47.1685 12.5 47.5C12.5 47.8315 12.6317 48.1495 12.8661 48.3839C13.1005 48.6183 13.4185 48.75 13.75 48.75C15.8188 48.742 17.8598 48.2736 19.725 47.3787C20.3065 47.1026 20.8679 46.786 21.405 46.4312C21.6059 46.2967 21.8019 46.155 21.9925 46.0062L22.03 45.9775L22.0425 45.9675L22.0462 45.9625H22.0487L22.05 45.96C22.3045 45.7478 22.4644 45.4431 22.4944 45.1131C22.5244 44.7831 22.4221 44.4546 22.21 44.2ZM24.79 50.5562C24.8811 50.6928 24.9445 50.846 24.9764 51.007C25.0083 51.1681 25.0082 51.3338 24.976 51.4948C24.9439 51.6558 24.8803 51.8089 24.789 51.9454C24.6976 52.0818 24.5803 52.1989 24.4438 52.29L24.4412 52.2925L24.4362 52.295L24.4237 52.3025L24.385 52.3275L24.2425 52.4187C23.4944 52.8773 22.7168 53.2861 21.915 53.6425C20.4375 54.2987 18.3762 55 16.25 55C15.9185 55 15.6005 54.8683 15.3661 54.6339C15.1317 54.3995 15 54.0815 15 53.75C15 53.4185 15.1317 53.1005 15.3661 52.8661C15.6005 52.6317 15.9185 52.5 16.25 52.5C17.8725 52.5 19.5625 51.9512 20.8987 51.3575C21.5953 51.0478 22.2709 50.6928 22.9212 50.295C22.9704 50.2658 23.0063 50.2433 23.0288 50.2275L23.0538 50.2125L23.0562 50.21C23.1928 50.1189 23.346 50.0555 23.507 50.0236C23.6681 49.9917 23.8338 49.9918 23.9948 50.024C24.1558 50.0561 24.3089 50.1197 24.4454 50.211C24.5818 50.3023 24.6989 50.4196 24.79 50.5562Z" fill="#D6F64B"/>
</svg>
