<svg width="60" height="60" viewBox="0 0 60 60" fill="none" xmlns="http://www.w3.org/2000/svg">
<path d="M24.675 30.375L22.5 16.1501C27.3796 14.5984 32.6204 14.5984 37.5 16.1501L35.325 30.375C35.15 31.6 34.075 32.5 32.825 32.5H27.15C26.5514 32.5008 25.9723 32.2868 25.5182 31.8968C25.064 31.5069 24.7648 30.9669 24.675 30.375ZM55 40C55 38.025 53.825 36.25 52 35.425C50.7974 29.6444 47.3897 24.5597 42.5 21.2501L38.1 33.35C37.75 34.35 36.8 35 35.75 35H24.25C23.2 35 22.25 34.35 21.9 33.35L17.5 21.2501C12.6195 24.5576 9.21354 29.6306 8 35.4C6.175 36.25 5 38 5 40L21.125 44.6C22.025 44.85 22.95 45 23.875 45H36.075C37 45 37.925 44.85 38.825 44.6L55 40Z" fill="#D6F64B"/>
</svg>
