<svg width="250" height="38" viewBox="0 0 250 38" fill="none" xmlns="http://www.w3.org/2000/svg">
<path d="M47.4 2.5L42.5 34.45C42.3667 35.2167 41.9833 35.8333 41.35 36.3C40.75 36.7667 40.05 37 39.25 37H31C30.1667 37 29.4333 36.7667 28.8 36.3C28.2 35.8333 27.85 35.2167 27.75 34.45L24.7 13.85C24.6 13.05 24.5167 12.25 24.45 11.45C24.3833 10.65 24.3 9.85 24.2 9.05H23.3C23.2667 9.85 23.2 10.6667 23.1 11.5C23.0333 12.3 22.95 13.1 22.85 13.9L19.85 34.45C19.75 35.2167 19.3833 35.8333 18.75 36.3C18.1167 36.7667 17.4 37 16.6 37H8.3C7.46667 37 6.73333 36.7667 6.1 36.3C5.5 35.8333 5.15 35.2167 5.05 34.45L0.1 2.5H9.45L12.05 24.95C12.1167 25.75 12.1667 26.6 12.2 27.5C12.2667 28.4 12.3167 29.35 12.35 30.35H13.2C13.3333 29.5167 13.4667 28.6167 13.6 27.65C13.7667 26.6833 13.9 25.7667 14 24.9L17 5.3C17.1 4.46667 17.45 3.8 18.05 3.3C18.65 2.76666 19.3667 2.5 20.2 2.5H27.3C28.1333 2.5 28.8333 2.76666 29.4 3.3C30 3.8 30.3667 4.46667 30.5 5.3L33.55 25C33.65 25.8667 33.7667 26.7667 33.9 27.7C34.0333 28.6333 34.1667 29.5167 34.3 30.35H35.2C35.2 29.4833 35.2333 28.5833 35.3 27.65C35.4 26.7167 35.4667 25.85 35.5 25.05L38.05 2.5H47.4ZM63.8293 11.45C67.096 11.45 69.7126 11.8833 71.6793 12.75C73.646 13.5833 75.0626 14.9667 75.9293 16.9C76.796 18.8 77.2293 21.3667 77.2293 24.6C77.2293 27.8 76.796 30.35 75.9293 32.25C75.0626 34.1167 73.646 35.4833 71.6793 36.35C69.7126 37.1833 67.096 37.6 63.8293 37.6C60.5626 37.6 57.946 37.1833 55.9793 36.35C54.0126 35.4833 52.596 34.1167 51.7293 32.25C50.8626 30.35 50.4293 27.8 50.4293 24.6C50.4293 21.3667 50.8626 18.8 51.7293 16.9C52.596 14.9667 54.0126 13.5833 55.9793 12.75C57.946 11.8833 60.5626 11.45 63.8293 11.45ZM63.8293 17.8C62.796 17.8 61.996 17.9833 61.4293 18.35C60.896 18.7167 60.5126 19.3833 60.2793 20.35C60.046 21.3167 59.9293 22.7333 59.9293 24.6C59.9293 26.4333 60.046 27.8333 60.2793 28.8C60.5126 29.7667 60.896 30.4333 61.4293 30.8C61.996 31.1333 62.796 31.3 63.8293 31.3C64.8626 31.3 65.6626 31.1333 66.2293 30.8C66.796 30.4333 67.1793 29.7667 67.3793 28.8C67.6126 27.8333 67.7293 26.4333 67.7293 24.6C67.7293 22.7333 67.6126 21.3167 67.3793 20.35C67.1793 19.3833 66.796 18.7167 66.2293 18.35C65.6626 17.9833 64.8626 17.8 63.8293 17.8ZM89.4586 12.15L90.5586 17.15L91.4586 17.8V37H82.3586V12.15H89.4586ZM101.559 11.45L100.759 19.8H98.3586C97.3586 19.8 96.2586 19.9 95.0586 20.1C93.8586 20.3 92.3419 20.6333 90.5086 21.1L89.9586 16.15C91.6253 14.5833 93.3253 13.4167 95.0586 12.65C96.8253 11.85 98.5253 11.45 100.159 11.45H101.559ZM131.38 12.15L125.58 20.5C125.247 21.1 124.813 21.65 124.28 22.15C123.747 22.65 123.313 23 122.98 23.2V23.4C123.313 23.6 123.747 24 124.28 24.6C124.813 25.2 125.247 25.8 125.58 26.4L132.28 37H122.23L114.43 23.15L121.38 12.15H131.38ZM114.48 2V15.9C114.48 17.1 114.397 18.3167 114.23 19.55C114.097 20.7833 113.863 21.9667 113.53 23.1C113.797 24.1333 114.013 25.2333 114.18 26.4C114.38 27.5667 114.48 28.6333 114.48 29.6V37H105.38V2H114.48ZM117.53 20.6V25.9H111.73V20.6H117.53ZM156.924 2.5V27.35C156.924 28.0167 157.14 28.55 157.574 28.95C158.007 29.3167 158.59 29.5 159.324 29.5H171.124L171.574 36.55C169.074 36.85 166.44 37.0167 163.674 37.05C160.907 37.1167 158.174 37.15 155.474 37.15C152.974 37.15 151.024 36.45 149.624 35.05C148.257 33.65 147.574 31.8333 147.574 29.6V2.5H156.924ZM184.818 12.15V37H175.768V12.15H184.818ZM182.218 0.949999C183.984 0.949999 184.868 1.85 184.868 3.65V6.25C184.868 8.05 183.984 8.95 182.218 8.95H178.318C176.551 8.95 175.668 8.05 175.668 6.25V3.65C175.668 1.85 176.551 0.949999 178.318 0.949999H182.218ZM209.568 11.45C214.368 11.45 216.768 13.7667 216.768 18.4V37H207.668V21.25C207.668 20.45 207.502 19.9 207.168 19.6C206.868 19.3 206.318 19.15 205.518 19.15C204.685 19.15 203.785 19.2667 202.818 19.5C201.885 19.7333 200.702 20.1667 199.268 20.8L198.818 16.1C200.552 14.5667 202.335 13.4167 204.168 12.65C206.002 11.85 207.802 11.45 209.568 11.45ZM198.318 12.15L199.418 17.15L200.218 17.8V37H191.118V12.15H198.318ZM248.734 12.15L242.934 20.5C242.6 21.1 242.167 21.65 241.634 22.15C241.1 22.65 240.667 23 240.334 23.2V23.4C240.667 23.6 241.1 24 241.634 24.6C242.167 25.2 242.6 25.8 242.934 26.4L249.634 37H239.584L231.784 23.15L238.734 12.15H248.734ZM231.834 2V15.9C231.834 17.1 231.75 18.3167 231.584 19.55C231.45 20.7833 231.217 21.9667 230.884 23.1C231.15 24.1333 231.367 25.2333 231.534 26.4C231.734 27.5667 231.834 28.6333 231.834 29.6V37H222.734V2H231.834ZM234.884 20.6V25.9H229.084V20.6H234.884Z" fill="#D6F64B"/>
</svg>
